<svg xmlns="http://www.w3.org/2000/svg" xmlns:xlink="http://www.w3.org/1999/xlink" preserveAspectRatio="xMidYMid" width="14" height="11" viewBox="0 0 14 11">
  <defs>
    <style>
      .cls-1 {
        fill: #d7d7d7;
        fill-rule: evenodd;
      }
    </style>
  </defs>
  <path d="M14.001,1.302 C13.486,1.524 12.932,1.673 12.351,1.740 C12.944,1.396 13.399,0.852 13.614,0.204 C13.059,0.521 12.444,0.753 11.790,0.877 C11.266,0.338 10.519,0.000 9.693,0.000 C8.107,0.000 6.820,1.243 6.820,2.777 C6.820,2.994 6.846,3.207 6.895,3.410 C4.507,3.294 2.391,2.189 0.974,0.508 C0.727,0.919 0.585,1.396 0.585,1.905 C0.585,2.868 1.092,3.718 1.863,4.216 C1.392,4.202 0.949,4.077 0.562,3.868 C0.562,3.880 0.562,3.892 0.562,3.903 C0.562,5.249 1.552,6.371 2.866,6.627 C2.625,6.690 2.371,6.724 2.109,6.724 C1.924,6.724 1.744,6.706 1.569,6.674 C1.934,7.777 2.995,8.580 4.252,8.602 C3.269,9.347 2.030,9.791 0.684,9.791 C0.453,9.791 0.224,9.778 -0.001,9.752 C1.270,10.540 2.780,11.000 4.403,11.000 C9.686,11.000 12.576,6.769 12.576,3.099 C12.576,2.978 12.573,2.859 12.567,2.740 C13.129,2.348 13.616,1.859 14.001,1.302 " class="cls-1"/>
</svg>
